# xmcd
#
# Track frame offsets:
# 150
# 21300
# 34500
# 57225
# 80025
# 96975
# 113625
# 133275
# 152625
# 172650
# 191850
# 207975
#
# Disc length: 3122 seconds
#
#
# Revision: 0
# Processed by: cddbd v1.5.1PL0 Copyright (c) Steve Scherf et al.
# Submitted via: FreeRIP 2.51 
#
DISCID=a10c300c
DTITLE=Mihalis Rakintzis - I Proti Apeili
DYEAR=1900
DGENRE=Pop
TTITLE0=To periplanomeno astraki
TTITLE1=Zito i eleytheria
TTITLE2=Tiheroula
TTITLE3=Moraki mou apanthropo
TTITLE4=Mi me agizeis
TTITLE5=Allaxe me
TTITLE6=Kardoula mou ego kai si
TTITLE7=Mono mesa stin agkalia mou
TTITLE8=14 Flevari
TTITLE9=I proti apeili
TTITLE10=Instumental
TTITLE11=Oi Rossoi
EXTD=
EXTT0=
EXTT1=
EXTT2=
EXTT3=
EXTT4=
EXTT5=
EXTT6=
EXTT7=
EXTT8=
EXTT9=
EXTT10=
EXTT11=
PLAYORDER=
